<mxfile host="app.diagrams.net" modified="2021-12-18T02:17:36.184Z" agent="5.0 (Windows NT 10.0; Win64; x64) AppleWebKit/537.36 (KHTML, like Gecko) Chrome/94.0.4606.71 Safari/537.36" etag="E59gF90I35VukvjyS2de" version="16.0.0" type="github">
  <diagram id="C9fy-HKtJNDOXY9v0t1b" name="第 1 页">
    <mxGraphModel dx="870" dy="538" grid="1" gridSize="10" guides="1" tooltips="1" connect="1" arrows="1" fold="1" page="1" pageScale="1" pageWidth="827" pageHeight="1169" math="0" shadow="0">
      <root>
        <mxCell id="0" />
        <mxCell id="1" parent="0" />
        <mxCell id="xnKZfCGI2sUpov_k1464-1" value="" style="shape=image;verticalLabelPosition=bottom;labelBackgroundColor=#ffffff;verticalAlign=top;aspect=fixed;imageAspect=0;image=data:image/svg+xml,PHN2ZyB4bWxucz0iaHR0cDovL3d3dy53My5vcmcvMjAwMC9zdmciIHhtbG5zOnhsaW5rPSJodHRwOi8vd3d3LnczLm9yZy8xOTk5L3hsaW5rIiB0PSIxNjM5NzA2MzgxNDU4IiBjbGFzcz0iaWNvbiIgdmlld0JveD0iMCAwIDEwMjQgMTAyNCIgdmVyc2lvbj0iMS4xIiBwLWlkPSIyMTA2IiB3aWR0aD0iMjUwIiBoZWlnaHQ9IjI1MCI+PGRlZnM+PHN0eWxlIHR5cGU9InRleHQvY3NzIi8+PC9kZWZzPjxwYXRoIGQ9Ik01NDAuMiAyNDQuNGMtMTIuMS0yMi41LTQ0LjMtMjIuNS01Ni40IDBMNjQuNSAxMDI0aDU5LjFjMTIuMSAwIDIzLjItNi45IDI4LjYtMTcuN2w3MS0xNDIuM2g1NzcuNmw3MSAxNDIuM2M1LjQgMTAuOSAxNi41IDE3LjcgMjguNiAxNy43aDU5LjFMNTQwLjIgMjQ0LjR6IG0tNDIuMyAxMDguOWM2LTExLjIgMjIuMS0xMS4yIDI4LjIgMEw2MjguNyA1NDRIMzk1LjNsMTAyLjYtMTkwLjd6TTM2MC45IDYwOGgxNzAuMkwyODQuMiA3NTAuNSAzNjAuOSA2MDh6IG0tMzQuNCAxOTJMNjU5IDYwOGwzLjEtMS44IDAuOSAxLjggMTAzLjMgMTkySDMyNi41ek02NjkuOSAxNDYuN2wtNTIuNiAzNi40QzYzMiAyMDQuNCA2NDAgMjI5LjYgNjQwIDI1NnMtOCA1MS42LTIyLjcgNzIuOWw1Mi42IDM2LjRjMjEuNS0zMSAzNC4xLTY4LjcgMzQuMS0xMDkuM3MtMTIuNi03OC4zLTM0LjEtMTA5LjN6IG0tMzE1LjggMGMtMjEuNSAzMS0zNC4xIDY4LjctMzQuMSAxMDkuM3MxMi42IDc4LjMgMzQuMSAxMDkuM2w1Mi42LTM2LjRDMzkyIDMwNy42IDM4NCAyODIuNCAzODQgMjU2czgtNTEuNiAyMi43LTcyLjlsLTUyLjYtMzYuNHpNNzYyLjQgODIuNkw3MDkuOCAxMTljOS4xIDEzLjMgMTYuOCAyNy40IDIzLjEgNDIuNCAxMi43IDI5LjkgMTkuMSA2MS43IDE5LjEgOTQuNiAwIDMyLjgtNi40IDY0LjYtMTkuMSA5NC42LTYuMyAxNC45LTE0IDI5LjEtMjMuMSA0Mi40bDUyLjYgMzYuNEM3OTYuMiAzODAgODE2IDMyMC4zIDgxNiAyNTZzLTE5LjgtMTI0LTUzLjYtMTczLjR6IG0tNDUyLjIgMzMuN2wtNTIuNi0zNi40QzIyMi41IDEyOS43IDIwMiAxOTAuNSAyMDIgMjU2czIwLjUgMTI2LjMgNTUuNSAxNzYuMmw1Mi42LTM2LjRjLTkuOS0xNC4xLTE4LjMtMjkuMi0yNS4xLTQ1LjItMTIuNi0zMC0xOS02MS44LTE5LTk0LjZzNi40LTY0LjcgMTkuMS05NC42YzYuNy0xNiAxNS4xLTMxLjEgMjUuMS00NS4xek04ODEuOCAwbC01Mi42IDM2LjRjMTQuNCAyMSAyNi43IDQzLjUgMzYuNyA2Ny4xIDIwIDQ3LjMgMzAuMiA5Ny42IDMwLjIgMTQ5LjVTODg2IDM1NS4xIDg2NS45IDQwMi41Yy0xMC43IDI1LjItMjMuOSA0OS0zOS41IDcxLjJMODc5IDUxMGM1MS4xLTcyLjggODEtMTYxLjQgODEtMjU3IDAtOTMuOS0yOC45LTE4MS03OC4yLTI1M3pNMTI4IDI1M2MwLTUxLjkgMTAuMS0xMDIuMiAzMC4yLTE0OS41IDEwLTIzLjcgMjIuMy00Ni4xIDM2LjctNjcuMUwxNDIuMiAwQzkyLjkgNzIgNjQgMTU5LjEgNjQgMjUzYzAgOTUuNiAzMCAxODQuMyA4MSAyNTdsNTIuNi0zNi40Yy0xNS42LTIyLjItMjguOC00Ni0zOS41LTcxLjItMjAtNDcuMy0zMC4xLTk3LjUtMzAuMS0xNDkuNHoiIHAtaWQ9IjIxMDciIGZpbGw9IiM3MDcwNzAiLz48L3N2Zz4=;" vertex="1" parent="1">
          <mxGeometry x="320" y="165" width="170" height="170" as="geometry" />
        </mxCell>
        <mxCell id="xnKZfCGI2sUpov_k1464-2" value="" style="shape=image;verticalLabelPosition=bottom;labelBackgroundColor=#ffffff;verticalAlign=top;aspect=fixed;imageAspect=0;image=data:image/svg+xml,PHN2ZyB4bWxucz0iaHR0cDovL3d3dy53My5vcmcvMjAwMC9zdmciIHhtbG5zOnhsaW5rPSJodHRwOi8vd3d3LnczLm9yZy8xOTk5L3hsaW5rIiB0PSIxNjM5NzA3MDM0MTM1IiBjbGFzcz0iaWNvbiIgdmlld0JveD0iMCAwIDEwMjQgMTAyNCIgdmVyc2lvbj0iMS4xIiBwLWlkPSIxNTAyOSIgd2lkdGg9IjI1MCIgaGVpZ2h0PSIyNTAiPjxkZWZzPjxzdHlsZSB0eXBlPSJ0ZXh0L2NzcyIvPjwvZGVmcz48cGF0aCBkPSJNODIwLjQwOTQ0OSA3OTcuMjI4MzQ2cTAgMjUuMTk2ODUtMTAuMDc4NzQgNDYuODY2MTQydC0yNy43MTY1MzUgMzguMjk5MjEzLTQxLjMyMjgzNSAyNi4yMDQ3MjQtNTAuODk3NjM4IDkuNTc0ODAzbC0zNTcuNzk1Mjc2IDBxLTI3LjIxMjU5OCAwLTUwLjg5NzYzOC05LjU3NDgwM3QtNDEuMzIyODM1LTI2LjIwNDcyNC0yNy43MTY1MzUtMzguMjk5MjEzLTEwLjA3ODc0LTQ2Ljg2NjE0MmwwLTY3NS4yNzU1OTFxMC0yNS4xOTY4NSAxMC4wNzg3NC00Ny4zNzAwNzl0MjcuNzE2NTM1LTM4LjgwMzE1IDQxLjMyMjgzNS0yNi4yMDQ3MjQgNTAuODk3NjM4LTkuNTc0ODAzbDM1Ny43OTUyNzYgMHEyNy4yMTI1OTggMCA1MC44OTc2MzggOS41NzQ4MDN0NDEuMzIyODM1IDI2LjIwNDcyNCAyNy43MTY1MzUgMzguODAzMTUgMTAuMDc4NzQgNDcuMzcwMDc5bDAgNjc1LjI3NTU5MXpNNzM4Ljc3MTY1NCAxNzAuMzMwNzA5bC00NTUuNTU5MDU1IDAgMCA1NzcuNTExODExIDQ1NS41NTkwNTUgMCAwLTU3Ny41MTE4MTF6TTUxMC45OTIxMjYgNzc2LjA2Mjk5MnEtMjEuMTY1MzU0IDAtMzYuNzg3NDAyIDE1LjExODExdC0xNS42MjIwNDcgMzcuMjkxMzM5cTAgMjEuMTY1MzU0IDE1LjYyMjA0NyAzNi43ODc0MDJ0MzYuNzg3NDAyIDE1LjYyMjA0N3EyMi4xNzMyMjggMCAzNy4yOTEzMzktMTUuNjIyMDQ3dDE1LjExODExLTM2Ljc4NzQwMnEwLTIyLjE3MzIyOC0xNS4xMTgxMS0zNy4yOTEzMzl0LTM3LjI5MTMzOS0xNS4xMTgxMXpNNTkxLjYyMjA0NyA4NC42NjE0MTdxMC04LjA2Mjk5Mi01LjAzOTM3LTEyLjU5ODQyNXQtMTEuMDg2NjE0LTQuNTM1NDMzbC0xMjggMHEtNS4wMzkzNyAwLTEwLjU4MjY3NyA0LjUzNTQzM3QtNS41NDMzMDcgMTIuNTk4NDI1IDUuMDM5MzcgMTIuNTk4NDI1IDExLjA4NjYxNCA0LjUzNTQzM2wxMjggMHE2LjA0NzI0NCAwIDExLjA4NjYxNC00LjUzNTQzM3Q1LjAzOTM3LTEyLjU5ODQyNXoiIHAtaWQ9IjE1MDMwIi8+PC9zdmc+;" vertex="1" parent="1">
          <mxGeometry x="120" y="230" width="40" height="40" as="geometry" />
        </mxCell>
        <mxCell id="xnKZfCGI2sUpov_k1464-3" value="" style="shape=image;verticalLabelPosition=bottom;labelBackgroundColor=#ffffff;verticalAlign=top;aspect=fixed;imageAspect=0;image=data:image/svg+xml,PHN2ZyB4bWxucz0iaHR0cDovL3d3dy53My5vcmcvMjAwMC9zdmciIHhtbG5zOnhsaW5rPSJodHRwOi8vd3d3LnczLm9yZy8xOTk5L3hsaW5rIiB0PSIxNjM5NzIxNTI0MDI0IiBjbGFzcz0iaWNvbiIgdmlld0JveD0iMCAwIDEwMjQgMTAyNCIgdmVyc2lvbj0iMS4xIiBwLWlkPSIxMjc4IiB3aWR0aD0iMjUwIiBoZWlnaHQ9IjI1MCI+PGRlZnM+PHN0eWxlIHR5cGU9InRleHQvY3NzIi8+PC9kZWZzPjxwYXRoIGQ9Ik03MDQgNDQ2SDMyMGMtNC40IDAtOCAzLjYtOCA4djQwMmMwIDQuNCAzLjYgOCA4IDhoMzg0YzQuNCAwIDgtMy42IDgtOFY0NTRjMC00LjQtMy42LTgtOC04eiBtLTMyOCA2NGgyNzJ2MTE3SDM3NlY1MTB6IG0yNzIgMjkwSDM3NlY2ODNoMjcydjExN3oiIHAtaWQ9IjEyNzkiIGZpbGw9IiM1MTUxNTEiLz48cGF0aCBkPSJNNDI0IDc0OGEzMiAzMiAwIDEgMCA2NCAwIDMyIDMyIDAgMSAwLTY0IDB6TTQyNCA1NzBhMzIgMzIgMCAxIDAgNjQgMCAzMiAzMiAwIDEgMC02NCAweiIgcC1pZD0iMTI4MCIgZmlsbD0iIzUxNTE1MSIvPjxwYXRoIGQ9Ik04MTEuNCAzNjguOUM3NjUuNiAyNDggNjQ4LjkgMTYyIDUxMi4yIDE2MlMyNTguOCAyNDcuOSAyMTMgMzY4LjhDMTI2LjkgMzkxLjUgNjMuNSA0NzAuMiA2NCA1NjMuNiA2NC42IDY2OCAxNDUuNiA3NTIuOSAyNDcuNiA3NjJjNC43IDAuNCA4LjctMy4zIDguNy04di02MC40YzAtNC0zLTcuNC03LTcuOS0yNy0zLjQtNTIuNS0xNS4yLTcyLjEtMzQuNS0yNC0yMy41LTM3LjItNTUuMS0zNy4yLTg4LjYgMC0yOCA5LjEtNTQuNCAyNi4yLTc2LjQgMTYuNy0yMS40IDQwLjItMzYuOSA2Ni4xLTQzLjdsMzcuOS0xMCAxMy45LTM2LjdjOC42LTIyLjggMjAuNi00NC4yIDM1LjctNjMuNSAxNC45LTE5LjIgMzIuNi0zNiA1Mi40LTUwIDQxLjEtMjguOSA4OS41LTQ0LjIgMTQwLTQ0LjJzOTguOSAxNS4zIDE0MCA0NC4zYzE5LjkgMTQgMzcuNSAzMC44IDUyLjQgNTAgMTUuMSAxOS4zIDI3LjEgNDAuNyAzNS43IDYzLjVsMTMuOCAzNi42IDM3LjggMTBjNTQuMiAxNC40IDkyLjEgNjMuNyA5Mi4xIDEyMCAwIDMzLjYtMTMuMiA2NS4xLTM3LjIgODguNi0xOS41IDE5LjItNDQuOSAzMS4xLTcxLjkgMzQuNS00IDAuNS02LjkgMy45LTYuOSA3LjlWNzU0YzAgNC43IDQuMSA4LjQgOC44IDggMTAxLjctOS4yIDE4Mi41LTk0IDE4My4yLTE5OC4yIDAuNi05My40LTYyLjctMTcyLjEtMTQ4LjYtMTk0Ljl6IiBwLWlkPSIxMjgxIiBmaWxsPSIjNTE1MTUxIi8+PC9zdmc+;" vertex="1" parent="1">
          <mxGeometry x="610" y="217.5" width="65" height="65" as="geometry" />
        </mxCell>
        <mxCell id="xnKZfCGI2sUpov_k1464-4" value="" style="shape=image;verticalLabelPosition=bottom;labelBackgroundColor=#ffffff;verticalAlign=top;aspect=fixed;imageAspect=0;image=data:image/svg+xml,PHN2ZyB4bWxucz0iaHR0cDovL3d3dy53My5vcmcvMjAwMC9zdmciIHhtbG5zOnhsaW5rPSJodHRwOi8vd3d3LnczLm9yZy8xOTk5L3hsaW5rIiB0PSIxNjM5NzA2NjU0OTEzIiBjbGFzcz0iaWNvbiIgdmlld0JveD0iMCAwIDEwMjQgMTAyNCIgdmVyc2lvbj0iMS4xIiBwLWlkPSI5NzQiIHdpZHRoPSIyNTAiIGhlaWdodD0iMjUwIj48ZGVmcz48c3R5bGUgdHlwZT0idGV4dC9jc3MiLz48L2RlZnM+PHBhdGggZD0iTTk3NS45OTk3MzcgNDY1LjMwMDMxNmMtMC4zIDExMC43OTk5MzctMzkuNDk5OTc4IDIxMi40OTk4OC0xMDQuNTk5OTQxIDI5Mi4wOTk4MzUtMTEuOTk5OTkzIDE0LjY5OTk5Mi0zNC4wOTk5ODEgMTUuODk5OTkxLTQ3LjQ5OTk3MyAyLjQ5OTk5OS0xMS41OTk5OTMtMTEuNTk5OTkzLTEyLjQ5OTk5My0zMC4xOTk5ODMtMi4wOTk5OTgtNDIuODk5OTc2IDI0LjA5OTk4Ni0yOS40OTk5ODMgNDMuNzk5OTc1LTYyLjA5OTk2NSA1OC42OTk5NjYtOTcuMjk5OTQ1QzkwMS4zOTk3NzkgNTcwLjQwMDI1NyA5MTEuOTk5NzczIDUxOC4wMDAyODcgOTExLjk5OTc3MyA0NjQuMDAwMzE3YzAtNTMuOTk5OTY5LTEwLjU5OTk5NC0xMDYuMzk5OTQtMzEuMzk5OTgyLTE1NS42OTk5MTItMjAuMDk5OTg5LTQ3LjU5OTk3My00OC45OTk5NzItOTAuMzk5OTQ5LTg1Ljc5OTk1MS0xMjcuMTk5OTI4cy03OS40OTk5NTUtNjUuNTk5OTYzLTEyNy4xOTk5MjgtODUuNzk5OTUxQzYxOC4zOTk5NCA3NC42MDA1MzggNTY1Ljk5OTk2OSA2NC4wMDA1NDQgNTEyIDY0LjAwMDU0NFM0MDUuNjAwMDYgNzQuNjAwNTM4IDM1Ni4zMDAwODggOTUuNDAwNTI2Yy00Ny41OTk5NzMgMjAuMDk5OTg5LTkwLjM5OTk0OSA0OC45OTk5NzItMTI3LjE5OTkyOCA4NS43OTk5NTFzLTY1LjU5OTk2MyA3OS40OTk5NTUtODUuNzk5OTUxIDEyNy4xOTk5MjhDMTIyLjYwMDIyMSAzNTcuNjAwMzc3IDExMi4wMDAyMjcgNDEwLjAwMDM0OCAxMTIuMDAwMjI3IDQ2NC4wMDAzMTdzMTAuNTk5OTk0IDEwNi4zOTk5NCAzMS4zOTk5ODIgMTU1LjY5OTkxMmMxNC44OTk5OTIgMzUuMjk5OTggMzQuNTk5OTggNjcuODk5OTYyIDU4LjY5OTk2NyA5Ny4yOTk5NDUgMTAuMzk5OTk0IDEyLjY5OTk5MyA5LjU5OTk5NSAzMS4yOTk5ODItMi4wOTk5OTkgNDIuODk5OTc2LTEzLjM5OTk5MiAxMy4zOTk5OTItMzUuMzk5OTggMTIuMjk5OTkzLTQ3LjM5OTk3My0yLjI5OTk5OUM4Ny4zMDAyNDEgNjc3LjYwMDE5NiA0OC4wMDAyNjMgNTc1LjQwMDI1NCA0OC4wMDAyNjMgNDY0LjAwMDMxNyA0OC4wMDAyNjMgMjA3LjUwMDQ2MiAyNTYuMTAwMTQ1LTAuMzk5NDIgNTEyLjcgMC4wMDA1OGMyNTcuMDk5ODU0IDAuNCA0NjMuOTk5NzM3IDIwOC4xOTk4ODIgNDYzLjI5OTczNyA0NjUuMjk5NzM2eiIgcC1pZD0iOTc1IiBmaWxsPSIjNTE1MTUxIi8+PHBhdGggZD0iTTgxNS45OTk4MjggNDY0LjAwMDMxN2MwIDY2LjU5OTk2Mi0yMS4zOTk5ODggMTI4LjE5OTkyNy01Ny42OTk5NjggMTc4LjE5OTg5OS0xMS40OTk5OTMgMTUuODk5OTkxLTM0LjQ5OTk4IDE3LjQ5OTk5LTQ4LjM5OTk3MiAzLjY5OTk5OC0xMS4wOTk5OTQtMTEuMDk5OTk0LTEyLjQ5OTk5My0yOC42OTk5ODQtMy4xOTk5OTgtNDEuMzk5OTc2IDEwLjU5OTk5NC0xNC41OTk5OTIgMTkuMzk5OTg5LTMwLjI5OTk4MyAyNi40OTk5ODUtNDcuMDk5OTc0IDEyLjQ5OTk5My0yOS40OTk5ODMgMTguNzk5OTg5LTYwLjk5OTk2NSAxOC43OTk5ODktOTMuMzk5OTQ3cy02LjI5OTk5Ni02My44OTk5NjQtMTguNzk5OTg5LTkzLjM5OTk0N2MtMTIuMDk5OTkzLTI4LjU5OTk4NC0yOS4zOTk5ODMtNTQuMTk5OTY5LTUxLjQ5OTk3MS03Ni4yOTk5NTctMjIuMDk5OTg3LTIyLjA5OTk4Ny00Ny42OTk5NzMtMzkuMzk5OTc4LTc2LjI5OTk1Ny01MS40OTk5NzEtMjkuNTk5OTgzLTEyLjQ5OTk5My02MC45OTk5NjUtMTguNzk5OTg5LTkzLjM5OTk0Ny0xOC43OTk5ODlzLTYzLjc5OTk2NCA2LjI5OTk5Ni05My4zOTk5NDcgMTguNzk5OTg5Yy0yOC41OTk5ODQgMTIuMDk5OTkzLTU0LjE5OTk2OSAyOS4zOTk5ODMtNzYuMjk5OTU3IDUxLjQ5OTk3MS0yMi4wOTk5ODcgMjIuMDk5OTg3LTM5LjM5OTk3OCA0Ny42OTk5NzMtNTEuNDk5OTcxIDc2LjI5OTk1Ny0xMi40OTk5OTMgMjkuNDk5OTgzLTE4Ljc5OTk4OSA2MC45OTk5NjUtMTguNzk5OTg5IDkzLjM5OTk0N3M2LjI5OTk5NiA2My43OTk5NjQgMTguNzk5OTg5IDkzLjM5OTk0N2M3LjA5OTk5NiAxNi42OTk5OTEgMTUuODk5OTkxIDMyLjQ5OTk4MiAyNi40OTk5ODUgNDcuMDk5OTc0IDkuMTk5OTk1IDEyLjc5OTk5MyA3Ljg5OTk5NiAzMC4yOTk5ODMtMy4xOTk5OTggNDEuMzk5OTc2LTEzLjc5OTk5MiAxMy43OTk5OTItMzYuODk5OTc5IDEyLjE5OTk5My00OC4zOTk5NzItMy42OTk5OTgtMzYuMjk5OTc5LTQ5Ljk5OTk3Mi01Ny42OTk5NjctMTExLjU5OTkzNy01Ny42OTk5NjgtMTc4LjE5OTg5OSAwLTE2Ny44OTk5MDUgMTM2LjA5OTkyMy0zMDMuOTk5ODI4IDMwMy45OTk4MjgtMzAzLjk5OTgyOHMzMDMuOTk5ODI4IDEzNi4wOTk5MjMgMzAzLjk5OTgyOCAzMDMuOTk5ODI4eiIgcC1pZD0iOTc2IiBmaWxsPSIjNTE1MTUxIi8+PHBhdGggZD0iTTU2My4yOTk5NzEgNTgxLjMwMDI1MWM0NC40OTk5NzUtMTkuNDk5OTg5IDc1LjY5OTk1Ny02My40OTk5NjQgNzYuNjk5OTU3LTExNC44OTk5MzUgMS4yOTk5OTktNzAuOTk5OTYtNTYuMDk5OTY4LTEyOS44OTk5MjYtMTI3LjA5OTkyOS0xMzAuMzk5OTI2LTcxLjA5OTk2LTAuNS0xMjguODk5OTI3IDU2Ljk5OTk2OC0xMjguODk5OTI3IDEyNy45OTk5MjcgMCA1Mi4zOTk5NyAzMS40OTk5ODIgOTcuNDk5OTQ1IDc2LjY5OTk1NyAxMTcuMjk5OTM0IDExLjY5OTk5MyA1LjA5OTk5NyAxOS4yOTk5ODkgMTYuNTk5OTkxIDE5LjI5OTk4OSAyOS4zOTk5ODNWODk2LjAwMDA3MmMwIDM1LjI5OTk4LTI4LjY5OTk4NCA2My45OTk5NjQtNjMuOTk5OTY0IDYzLjk5OTk2NGgtMTQuOTk5OTkxYy04Ljc5OTk5NSAwLTE1Ljk5OTk5MSA3LjE5OTk5Ni0xNS45OTk5OTEgMTUuOTk5OTkxdjMxLjk5OTk4MmMwIDguNzk5OTk1IDcuMTk5OTk2IDE1Ljk5OTk5MSAxNS45OTk5OTEgMTUuOTk5OTkxaDIyMi45OTk4NzRjOC43OTk5OTUgMCAxNS45OTk5OTEtNy4xOTk5OTYgMTUuOTk5OTkxLTE1Ljk5OTk5MXYtMzEuOTk5OTgyYzAtOC43OTk5OTUtNy4xOTk5OTYtMTUuOTk5OTkxLTE1Ljk5OTk5MS0xNS45OTk5OTFoLTE1Ljk5OTk5MWMtMzUuMjk5OTggMC02My45OTk5NjQtMjguNjk5OTg0LTYzLjk5OTk2NC02My45OTk5NjRWNjEwLjcwMDIzNGMwLTEyLjc5OTk5MyA3LjU5OTk5Ni0yNC4yOTk5ODYgMTkuMjk5OTg5LTI5LjM5OTk4M3pNNTEyIDUyOC4wMDAyODFjLTM1LjI5OTk4IDAtNjMuOTk5OTY0LTI4LjY5OTk4NC02My45OTk5NjQtNjMuOTk5OTY0czI4LjY5OTk4NC02My45OTk5NjQgNjMuOTk5OTY0LTYzLjk5OTk2NCA2My45OTk5NjQgMjguNjk5OTg0IDYzLjk5OTk2NCA2My45OTk5NjQtMjguNjk5OTg0IDYzLjk5OTk2NC02My45OTk5NjQgNjMuOTk5OTY0eiIgcC1pZD0iOTc3IiBmaWxsPSIjNTE1MTUxIi8+PC9zdmc+;" vertex="1" parent="1">
          <mxGeometry x="355" y="459.5" width="100" height="100" as="geometry" />
        </mxCell>
        <mxCell id="xnKZfCGI2sUpov_k1464-5" value="" style="shape=image;verticalLabelPosition=bottom;labelBackgroundColor=#ffffff;verticalAlign=top;aspect=fixed;imageAspect=0;image=data:image/svg+xml,PHN2ZyB4bWxucz0iaHR0cDovL3d3dy53My5vcmcvMjAwMC9zdmciIHhtbG5zOnhsaW5rPSJodHRwOi8vd3d3LnczLm9yZy8xOTk5L3hsaW5rIiB0PSIxNjM5NzA3MDM0MTM1IiBjbGFzcz0iaWNvbiIgdmlld0JveD0iMCAwIDEwMjQgMTAyNCIgdmVyc2lvbj0iMS4xIiBwLWlkPSIxNTAyOSIgd2lkdGg9IjI1MCIgaGVpZ2h0PSIyNTAiPjxkZWZzPjxzdHlsZSB0eXBlPSJ0ZXh0L2NzcyIvPjwvZGVmcz48cGF0aCBkPSJNODIwLjQwOTQ0OSA3OTcuMjI4MzQ2cTAgMjUuMTk2ODUtMTAuMDc4NzQgNDYuODY2MTQydC0yNy43MTY1MzUgMzguMjk5MjEzLTQxLjMyMjgzNSAyNi4yMDQ3MjQtNTAuODk3NjM4IDkuNTc0ODAzbC0zNTcuNzk1Mjc2IDBxLTI3LjIxMjU5OCAwLTUwLjg5NzYzOC05LjU3NDgwM3QtNDEuMzIyODM1LTI2LjIwNDcyNC0yNy43MTY1MzUtMzguMjk5MjEzLTEwLjA3ODc0LTQ2Ljg2NjE0MmwwLTY3NS4yNzU1OTFxMC0yNS4xOTY4NSAxMC4wNzg3NC00Ny4zNzAwNzl0MjcuNzE2NTM1LTM4LjgwMzE1IDQxLjMyMjgzNS0yNi4yMDQ3MjQgNTAuODk3NjM4LTkuNTc0ODAzbDM1Ny43OTUyNzYgMHEyNy4yMTI1OTggMCA1MC44OTc2MzggOS41NzQ4MDN0NDEuMzIyODM1IDI2LjIwNDcyNCAyNy43MTY1MzUgMzguODAzMTUgMTAuMDc4NzQgNDcuMzcwMDc5bDAgNjc1LjI3NTU5MXpNNzM4Ljc3MTY1NCAxNzAuMzMwNzA5bC00NTUuNTU5MDU1IDAgMCA1NzcuNTExODExIDQ1NS41NTkwNTUgMCAwLTU3Ny41MTE4MTF6TTUxMC45OTIxMjYgNzc2LjA2Mjk5MnEtMjEuMTY1MzU0IDAtMzYuNzg3NDAyIDE1LjExODExdC0xNS42MjIwNDcgMzcuMjkxMzM5cTAgMjEuMTY1MzU0IDE1LjYyMjA0NyAzNi43ODc0MDJ0MzYuNzg3NDAyIDE1LjYyMjA0N3EyMi4xNzMyMjggMCAzNy4yOTEzMzktMTUuNjIyMDQ3dDE1LjExODExLTM2Ljc4NzQwMnEwLTIyLjE3MzIyOC0xNS4xMTgxMS0zNy4yOTEzMzl0LTM3LjI5MTMzOS0xNS4xMTgxMXpNNTkxLjYyMjA0NyA4NC42NjE0MTdxMC04LjA2Mjk5Mi01LjAzOTM3LTEyLjU5ODQyNXQtMTEuMDg2NjE0LTQuNTM1NDMzbC0xMjggMHEtNS4wMzkzNyAwLTEwLjU4MjY3NyA0LjUzNTQzM3QtNS41NDMzMDcgMTIuNTk4NDI1IDUuMDM5MzcgMTIuNTk4NDI1IDExLjA4NjYxNCA0LjUzNTQzM2wxMjggMHE2LjA0NzI0NCAwIDExLjA4NjYxNC00LjUzNTQzM3Q1LjAzOTM3LTEyLjU5ODQyNXoiIHAtaWQ9IjE1MDMwIi8+PC9zdmc+;" vertex="1" parent="1">
          <mxGeometry x="120" y="519.5" width="40" height="40" as="geometry" />
        </mxCell>
        <mxCell id="xnKZfCGI2sUpov_k1464-7" value="" style="shape=image;verticalLabelPosition=bottom;labelBackgroundColor=#ffffff;verticalAlign=top;aspect=fixed;imageAspect=0;image=data:image/svg+xml,PHN2ZyB4bWxucz0iaHR0cDovL3d3dy53My5vcmcvMjAwMC9zdmciIHhtbG5zOnhsaW5rPSJodHRwOi8vd3d3LnczLm9yZy8xOTk5L3hsaW5rIiB0PSIxNjM5NzIxNTI0MDI0IiBjbGFzcz0iaWNvbiIgdmlld0JveD0iMCAwIDEwMjQgMTAyNCIgdmVyc2lvbj0iMS4xIiBwLWlkPSIxMjc4IiB3aWR0aD0iMjUwIiBoZWlnaHQ9IjI1MCI+PGRlZnM+PHN0eWxlIHR5cGU9InRleHQvY3NzIi8+PC9kZWZzPjxwYXRoIGQ9Ik03MDQgNDQ2SDMyMGMtNC40IDAtOCAzLjYtOCA4djQwMmMwIDQuNCAzLjYgOCA4IDhoMzg0YzQuNCAwIDgtMy42IDgtOFY0NTRjMC00LjQtMy42LTgtOC04eiBtLTMyOCA2NGgyNzJ2MTE3SDM3NlY1MTB6IG0yNzIgMjkwSDM3NlY2ODNoMjcydjExN3oiIHAtaWQ9IjEyNzkiIGZpbGw9IiM1MTUxNTEiLz48cGF0aCBkPSJNNDI0IDc0OGEzMiAzMiAwIDEgMCA2NCAwIDMyIDMyIDAgMSAwLTY0IDB6TTQyNCA1NzBhMzIgMzIgMCAxIDAgNjQgMCAzMiAzMiAwIDEgMC02NCAweiIgcC1pZD0iMTI4MCIgZmlsbD0iIzUxNTE1MSIvPjxwYXRoIGQ9Ik04MTEuNCAzNjguOUM3NjUuNiAyNDggNjQ4LjkgMTYyIDUxMi4yIDE2MlMyNTguOCAyNDcuOSAyMTMgMzY4LjhDMTI2LjkgMzkxLjUgNjMuNSA0NzAuMiA2NCA1NjMuNiA2NC42IDY2OCAxNDUuNiA3NTIuOSAyNDcuNiA3NjJjNC43IDAuNCA4LjctMy4zIDguNy04di02MC40YzAtNC0zLTcuNC03LTcuOS0yNy0zLjQtNTIuNS0xNS4yLTcyLjEtMzQuNS0yNC0yMy41LTM3LjItNTUuMS0zNy4yLTg4LjYgMC0yOCA5LjEtNTQuNCAyNi4yLTc2LjQgMTYuNy0yMS40IDQwLjItMzYuOSA2Ni4xLTQzLjdsMzcuOS0xMCAxMy45LTM2LjdjOC42LTIyLjggMjAuNi00NC4yIDM1LjctNjMuNSAxNC45LTE5LjIgMzIuNi0zNiA1Mi40LTUwIDQxLjEtMjguOSA4OS41LTQ0LjIgMTQwLTQ0LjJzOTguOSAxNS4zIDE0MCA0NC4zYzE5LjkgMTQgMzcuNSAzMC44IDUyLjQgNTAgMTUuMSAxOS4zIDI3LjEgNDAuNyAzNS43IDYzLjVsMTMuOCAzNi42IDM3LjggMTBjNTQuMiAxNC40IDkyLjEgNjMuNyA5Mi4xIDEyMCAwIDMzLjYtMTMuMiA2NS4xLTM3LjIgODguNi0xOS41IDE5LjItNDQuOSAzMS4xLTcxLjkgMzQuNS00IDAuNS02LjkgMy45LTYuOSA3LjlWNzU0YzAgNC43IDQuMSA4LjQgOC44IDggMTAxLjctOS4yIDE4Mi41LTk0IDE4My4yLTE5OC4yIDAuNi05My40LTYyLjctMTcyLjEtMTQ4LjYtMTk0Ljl6IiBwLWlkPSIxMjgxIiBmaWxsPSIjNTE1MTUxIi8+PC9zdmc+;" vertex="1" parent="1">
          <mxGeometry x="610" y="477" width="65" height="65" as="geometry" />
        </mxCell>
        <mxCell id="xnKZfCGI2sUpov_k1464-9" value="" style="shape=image;verticalLabelPosition=bottom;labelBackgroundColor=#ffffff;verticalAlign=top;aspect=fixed;imageAspect=0;image=data:image/svg+xml,PHN2ZyB4bWxucz0iaHR0cDovL3d3dy53My5vcmcvMjAwMC9zdmciIHhtbG5zOnhsaW5rPSJodHRwOi8vd3d3LnczLm9yZy8xOTk5L3hsaW5rIiB0PSIxNjM5NzkzNjAxMjEzIiBjbGFzcz0iaWNvbiIgdmlld0JveD0iMCAwIDMyOTQgMTAyNCIgdmVyc2lvbj0iMS4xIiBwLWlkPSI0NDEyIiB3aWR0aD0iODA0LjE5OTIxODc1IiBoZWlnaHQ9IjI1MCI+PGRlZnM+PHN0eWxlIHR5cGU9InRleHQvY3NzIi8+PC9kZWZzPjxwYXRoIGQ9Ik0xMTYuNDkyMTg3NSA1NjMuNTg3OTc1NzhoMzc4LjMxMTgyMDMxdi0xMDMuMTc1OTUxNTZIMTE2LjQ5MjE4NzV2MTAzLjE3NTk1MTU1eiBtNTUwLjI3MTczOTA3IDBoMzc4LjMxMTgyMTA4di0xMDMuMTc1OTUxNTZINjY2Ljc2MzkyNjU2djEwMy4xNzU5NTE1NXogbTU1MC4yNzE3MzkwNSAwaDM3OC4zMTE4MjEwOXYtMTAzLjE3NTk1MTU2SDEyMTcuMDM1NjY1NjJ2MTAzLjE3NTk1MTU1eiBtNTUwLjI3MTczOTA4IDBoMzc4LjMxMTgyMTA4di0xMDMuMTc1OTUxNTZIMTc2Ny4zMDc0MDQ3djEwMy4xNzU5NTE1NXogbTczMy4wMzA3NDA2MiAwSDIzMTcuNTc5MTQzNzV2LTEwMy4xNzU5NTE1NmgxNjcuNzk4NDg5MDdMMjI1MC44NTg2OTUzMiAyMjUuOTI3NDc5NjhhNTEuNTg3OTc1NzggNTEuNTg3OTc1NzggMCAwIDEgNzIuOTQ1Mzk3NjUtNzIuOTQ1Mzk3NjRsMzE2LjEzMTExNDA3IDMxNi4xMzExMTQwNmMxLjEwMDU0Mzc1IDEuMTAwNTQzNzUgMi4xMzIzMDMxMyAyLjIwMTA4NjczIDMuMDk1Mjc4OSAzLjMzNjAyMjY1YTUxLjQ4NDc5OTIyIDUxLjQ4NDc5OTIyIDAgMCAxIDExLjg5OTYyNTc4IDY0LjcyNTcxMzI4Yy0wLjg5NDE5MTQyIDExLjg5OTYyNjU2LTUuODQ2NjM3NSAyMy41NTg1MDg2LTE0Ljk5NDkwNDY4IDMyLjY3MjM4NDM4bC0zMTYuMTMxMTE0MDcgMzE2LjEzMTExNDA3YTUxLjU4Nzk3NTc4IDUxLjU4Nzk3NTc4IDAgMCAxLTcyLjk0NTM5NzY1LTcyLjk0NTM5NjlMMjUwMC4zMzgxNDUzMSA1NjMuNTg3OTc1Nzh6IiBmaWxsPSIjNzA3MDcwIiBwLWlkPSI0NDEzIi8+PC9zdmc+;" vertex="1" parent="1">
          <mxGeometry x="475.19" y="240.5" width="134.81" height="42" as="geometry" />
        </mxCell>
        <mxCell id="xnKZfCGI2sUpov_k1464-10" value="" style="shape=image;verticalLabelPosition=bottom;labelBackgroundColor=#ffffff;verticalAlign=top;aspect=fixed;imageAspect=0;image=data:image/svg+xml,PHN2ZyB4bWxucz0iaHR0cDovL3d3dy53My5vcmcvMjAwMC9zdmciIHhtbG5zOnhsaW5rPSJodHRwOi8vd3d3LnczLm9yZy8xOTk5L3hsaW5rIiB0PSIxNjM5NzkzNjAxMjEzIiBjbGFzcz0iaWNvbiIgdmlld0JveD0iMCAwIDMyOTQgMTAyNCIgdmVyc2lvbj0iMS4xIiBwLWlkPSI0NDEyIiB3aWR0aD0iODA0LjE5OTIxODc1IiBoZWlnaHQ9IjI1MCI+PGRlZnM+PHN0eWxlIHR5cGU9InRleHQvY3NzIi8+PC9kZWZzPjxwYXRoIGQ9Ik0xMTYuNDkyMTg3NSA1NjMuNTg3OTc1NzhoMzc4LjMxMTgyMDMxdi0xMDMuMTc1OTUxNTZIMTE2LjQ5MjE4NzV2MTAzLjE3NTk1MTU1eiBtNTUwLjI3MTczOTA3IDBoMzc4LjMxMTgyMTA4di0xMDMuMTc1OTUxNTZINjY2Ljc2MzkyNjU2djEwMy4xNzU5NTE1NXogbTU1MC4yNzE3MzkwNSAwaDM3OC4zMTE4MjEwOXYtMTAzLjE3NTk1MTU2SDEyMTcuMDM1NjY1NjJ2MTAzLjE3NTk1MTU1eiBtNTUwLjI3MTczOTA4IDBoMzc4LjMxMTgyMTA4di0xMDMuMTc1OTUxNTZIMTc2Ny4zMDc0MDQ3djEwMy4xNzU5NTE1NXogbTczMy4wMzA3NDA2MiAwSDIzMTcuNTc5MTQzNzV2LTEwMy4xNzU5NTE1NmgxNjcuNzk4NDg5MDdMMjI1MC44NTg2OTUzMiAyMjUuOTI3NDc5NjhhNTEuNTg3OTc1NzggNTEuNTg3OTc1NzggMCAwIDEgNzIuOTQ1Mzk3NjUtNzIuOTQ1Mzk3NjRsMzE2LjEzMTExNDA3IDMxNi4xMzExMTQwNmMxLjEwMDU0Mzc1IDEuMTAwNTQzNzUgMi4xMzIzMDMxMyAyLjIwMTA4NjczIDMuMDk1Mjc4OSAzLjMzNjAyMjY1YTUxLjQ4NDc5OTIyIDUxLjQ4NDc5OTIyIDAgMCAxIDExLjg5OTYyNTc4IDY0LjcyNTcxMzI4Yy0wLjg5NDE5MTQyIDExLjg5OTYyNjU2LTUuODQ2NjM3NSAyMy41NTg1MDg2LTE0Ljk5NDkwNDY4IDMyLjY3MjM4NDM4bC0zMTYuMTMxMTE0MDcgMzE2LjEzMTExNDA3YTUxLjU4Nzk3NTc4IDUxLjU4Nzk3NTc4IDAgMCAxLTcyLjk0NTM5NzY1LTcyLjk0NTM5NjlMMjUwMC4zMzgxNDUzMSA1NjMuNTg3OTc1Nzh6IiBmaWxsPSIjNzA3MDcwIiBwLWlkPSI0NDEzIi8+PC9zdmc+;" vertex="1" parent="1">
          <mxGeometry x="475.19" y="500" width="134.81" height="42" as="geometry" />
        </mxCell>
        <mxCell id="xnKZfCGI2sUpov_k1464-11" value="" style="shape=image;verticalLabelPosition=bottom;labelBackgroundColor=#ffffff;verticalAlign=top;aspect=fixed;imageAspect=0;image=data:image/svg+xml,PHN2ZyB4bWxucz0iaHR0cDovL3d3dy53My5vcmcvMjAwMC9zdmciIHhtbG5zOnhsaW5rPSJodHRwOi8vd3d3LnczLm9yZy8xOTk5L3hsaW5rIiB0PSIxNjM5NzkzNjc2MTI1IiBjbGFzcz0iaWNvbiIgdmlld0JveD0iMCAwIDEwMjQgMTAyNCIgdmVyc2lvbj0iMS4xIiBwLWlkPSI3NDcxIiB3aWR0aD0iMjUwIiBoZWlnaHQ9IjI1MCI+PGRlZnM+PHN0eWxlIHR5cGU9InRleHQvY3NzIi8+PC9kZWZzPjxwYXRoIGQ9Ik0gOTMzLjU0NyA4ODAgYyAtMTcuNzA2NyAwIC0zMiAtMTQuMjkzMyAtMzIgLTMyIGMgMCAtMjYwLjA1MyAtNzAuNjEzMyAtNDUyLjQ4IC0yMDkuNDkzIC01NzEuOTQ3IEMgNDg4LjUzMyAxMDEuNTQ3IDIwNS4wMTMgMTQyLjkzMyAyMDIuMjQgMTQzLjM2IGMgLTE3LjQ5MzMgMi41NiAtMzMuOTIgLTkuMzg2NjcgLTM2LjY5MzMgLTI2Ljg4IGMgLTIuNTYgLTE3LjQ5MzMgOS4zODY2NyAtMzMuNzA2NyAyNi44OCAtMzYuNDggYyAxMi44IC0xLjkyIDMxNS43MzMgLTQ1Ljg2NjcgNTQxLjIyNyAxNDcuNDEzIGMgMTUzLjgxMyAxMzIuMDUzIDIzMS44OTMgMzQwLjY5MyAyMzEuODkzIDYyMC4zNzMgYSAzMiAzMiAwIDAgMSAtMzIgMzIuMjEzMyBaIE0gNTIxLjM4NyA4NzUuMzA3IGMgLTE3LjcwNjcgMCAtMzIgLTE0LjI5MzMgLTMyIC0zMiBjIDAgLTEwNy4wOTMgLTI4LjM3MzMgLTE4NS44MTMgLTg0LjI2NjcgLTIzNC4yNCBjIC04MS40OTMzIC03MC4xODY3IC0xOTcuMzMzIC01My45NzMzIC0xOTguNjEzIC01My43NiBjIC0xNy40OTMzIDIuNTYgLTMzLjcwNjcgLTkuMzg2NjcgLTM2LjQ4IC0yNi44OCBjIC0yLjU2IC0xNy40OTMzIDkuMzg2NjcgLTMzLjcwNjcgMjYuNjY2NyAtMzYuNDggYyA1Ljk3MzMzIC0wLjg1MzMzMyAxNDUuMjggLTIxLjEyIDI0OS4zODcgNjguMjY2NyBjIDcxLjA0IDYxLjAxMzMgMTA3LjA5MyAxNTYuMTYgMTA3LjA5MyAyODMuMDkzIGMgMC4yMTMzMzMgMTcuNzA2NyAtMTQuMDggMzIgLTMxLjc4NjcgMzIgWiIgZmlsbD0iIzUxNTE1MSIgcC1pZD0iNzQ3MiIvPjxwYXRoIGQ9Ik0gNzI3LjA0IDg3Ny4yMjcgYyAtMTcuNzA2NyAwIC0zMiAtMTQuMjkzMyAtMzIgLTMyIGMgMCAtMTgzLjI1MyAtNDkuMjggLTMxOC41MDcgLTE0Ni41NiAtNDAyLjEzMyBjIC0xNDEuNjUzIC0xMjIuMDI3IC0zNDEuNzYgLTkzLjY1MzMgLTM0My42OCAtOTMuMjI2NyBjIC0xNy40OTMzIDIuNTYgLTMzLjcwNjcgLTkuMzg2NjcgLTM2LjQ4IC0yNi44OCBjIC0yLjU2IC0xNy40OTMzIDkuMzg2NjcgLTMzLjcwNjcgMjYuNjY2NyAtMzYuNDggYyA5LjM4NjY3IC0xLjQ5MzMzIDIzMC4xODcgLTMzLjQ5MzMgMzk0Ljg4IDEwNy43MzMgYyAxMTIuMjEzIDk2LjQyNjcgMTY5LjE3MyAyNDguMTA3IDE2OS4xNzMgNDUxLjIgYyAwIDE3LjQ5MzMgLTE0LjI5MzMgMzEuNzg2NyAtMzIgMzEuNzg2NyBaIE0gMjU4LjU2IDc1Ni4wNTMgYSAzMC43MiAzMC43MiAwIDEgMSAwIDYxLjQ0IGEgMzAuNzIgMzAuNzIgMCAwIDEgMCAtNjEuNDQgbSAwIC02NCBjIC01Mi4yNjY3IDAgLTk0LjcyIDQyLjQ1MzMgLTk0LjcyIDk0LjcyIHMgNDIuNDUzMyA5NC43MiA5NC43MiA5NC43MiBzIDk0LjcyIC00Mi40NTMzIDk0LjcyIC05NC43MiBzIC00Mi40NTMzIC05NC43MiAtOTQuNzIgLTk0LjcyIFoiIGZpbGw9IiM1MTUxNTEiIHAtaWQ9Ijc0NzMiLz48L3N2Zz4=;" vertex="1" parent="1">
          <mxGeometry x="210" y="190" width="70" height="70" as="geometry" />
        </mxCell>
        <mxCell id="xnKZfCGI2sUpov_k1464-12" value="" style="shape=image;verticalLabelPosition=bottom;labelBackgroundColor=#ffffff;verticalAlign=top;aspect=fixed;imageAspect=0;image=data:image/svg+xml,PHN2ZyB4bWxucz0iaHR0cDovL3d3dy53My5vcmcvMjAwMC9zdmciIHhtbG5zOnhsaW5rPSJodHRwOi8vd3d3LnczLm9yZy8xOTk5L3hsaW5rIiB0PSIxNjM5NzkzNjc2MTI1IiBjbGFzcz0iaWNvbiIgdmlld0JveD0iMCAwIDEwMjQgMTAyNCIgdmVyc2lvbj0iMS4xIiBwLWlkPSI3NDcxIiB3aWR0aD0iMjUwIiBoZWlnaHQ9IjI1MCI+PGRlZnM+PHN0eWxlIHR5cGU9InRleHQvY3NzIi8+PC9kZWZzPjxwYXRoIGQ9Ik0gOTMzLjU0NyA4ODAgYyAtMTcuNzA2NyAwIC0zMiAtMTQuMjkzMyAtMzIgLTMyIGMgMCAtMjYwLjA1MyAtNzAuNjEzMyAtNDUyLjQ4IC0yMDkuNDkzIC01NzEuOTQ3IEMgNDg4LjUzMyAxMDEuNTQ3IDIwNS4wMTMgMTQyLjkzMyAyMDIuMjQgMTQzLjM2IGMgLTE3LjQ5MzMgMi41NiAtMzMuOTIgLTkuMzg2NjcgLTM2LjY5MzMgLTI2Ljg4IGMgLTIuNTYgLTE3LjQ5MzMgOS4zODY2NyAtMzMuNzA2NyAyNi44OCAtMzYuNDggYyAxMi44IC0xLjkyIDMxNS43MzMgLTQ1Ljg2NjcgNTQxLjIyNyAxNDcuNDEzIGMgMTUzLjgxMyAxMzIuMDUzIDIzMS44OTMgMzQwLjY5MyAyMzEuODkzIDYyMC4zNzMgYSAzMiAzMiAwIDAgMSAtMzIgMzIuMjEzMyBaIE0gNTIxLjM4NyA4NzUuMzA3IGMgLTE3LjcwNjcgMCAtMzIgLTE0LjI5MzMgLTMyIC0zMiBjIDAgLTEwNy4wOTMgLTI4LjM3MzMgLTE4NS44MTMgLTg0LjI2NjcgLTIzNC4yNCBjIC04MS40OTMzIC03MC4xODY3IC0xOTcuMzMzIC01My45NzMzIC0xOTguNjEzIC01My43NiBjIC0xNy40OTMzIDIuNTYgLTMzLjcwNjcgLTkuMzg2NjcgLTM2LjQ4IC0yNi44OCBjIC0yLjU2IC0xNy40OTMzIDkuMzg2NjcgLTMzLjcwNjcgMjYuNjY2NyAtMzYuNDggYyA1Ljk3MzMzIC0wLjg1MzMzMyAxNDUuMjggLTIxLjEyIDI0OS4zODcgNjguMjY2NyBjIDcxLjA0IDYxLjAxMzMgMTA3LjA5MyAxNTYuMTYgMTA3LjA5MyAyODMuMDkzIGMgMC4yMTMzMzMgMTcuNzA2NyAtMTQuMDggMzIgLTMxLjc4NjcgMzIgWiIgZmlsbD0iIzUxNTE1MSIgcC1pZD0iNzQ3MiIvPjxwYXRoIGQ9Ik0gNzI3LjA0IDg3Ny4yMjcgYyAtMTcuNzA2NyAwIC0zMiAtMTQuMjkzMyAtMzIgLTMyIGMgMCAtMTgzLjI1MyAtNDkuMjggLTMxOC41MDcgLTE0Ni41NiAtNDAyLjEzMyBjIC0xNDEuNjUzIC0xMjIuMDI3IC0zNDEuNzYgLTkzLjY1MzMgLTM0My42OCAtOTMuMjI2NyBjIC0xNy40OTMzIDIuNTYgLTMzLjcwNjcgLTkuMzg2NjcgLTM2LjQ4IC0yNi44OCBjIC0yLjU2IC0xNy40OTMzIDkuMzg2NjcgLTMzLjcwNjcgMjYuNjY2NyAtMzYuNDggYyA5LjM4NjY3IC0xLjQ5MzMzIDIzMC4xODcgLTMzLjQ5MzMgMzk0Ljg4IDEwNy43MzMgYyAxMTIuMjEzIDk2LjQyNjcgMTY5LjE3MyAyNDguMTA3IDE2OS4xNzMgNDUxLjIgYyAwIDE3LjQ5MzMgLTE0LjI5MzMgMzEuNzg2NyAtMzIgMzEuNzg2NyBaIE0gMjU4LjU2IDc1Ni4wNTMgYSAzMC43MiAzMC43MiAwIDEgMSAwIDYxLjQ0IGEgMzAuNzIgMzAuNzIgMCAwIDEgMCAtNjEuNDQgbSAwIC02NCBjIC01Mi4yNjY3IDAgLTk0LjcyIDQyLjQ1MzMgLTk0LjcyIDk0LjcyIHMgNDIuNDUzMyA5NC43MiA5NC43MiA5NC43MiBzIDk0LjcyIC00Mi40NTMzIDk0LjcyIC05NC43MiBzIC00Mi40NTMzIC05NC43MiAtOTQuNzIgLTk0LjcyIFoiIGZpbGw9IiM1MTUxNTEiIHAtaWQ9Ijc0NzMiLz48L3N2Zz4=;" vertex="1" parent="1">
          <mxGeometry x="210" y="470" width="70" height="70" as="geometry" />
        </mxCell>
        <mxCell id="xnKZfCGI2sUpov_k1464-13" value="&lt;font style=&quot;font-size: 20px&quot;&gt;宏基站&lt;/font&gt;" style="text;html=1;strokeColor=none;fillColor=none;align=center;verticalAlign=middle;whiteSpace=wrap;rounded=0;" vertex="1" parent="1">
          <mxGeometry x="367.5" y="130" width="75" height="30" as="geometry" />
        </mxCell>
        <mxCell id="xnKZfCGI2sUpov_k1464-14" value="&lt;font style=&quot;font-size: 20px&quot;&gt;小基站&lt;/font&gt;" style="text;html=1;strokeColor=none;fillColor=none;align=center;verticalAlign=middle;whiteSpace=wrap;rounded=0;" vertex="1" parent="1">
          <mxGeometry x="367.5" y="420" width="75" height="30" as="geometry" />
        </mxCell>
        <mxCell id="xnKZfCGI2sUpov_k1464-15" value="&lt;font style=&quot;font-size: 20px&quot;&gt;边缘云服务器&lt;/font&gt;" style="text;html=1;strokeColor=none;fillColor=none;align=center;verticalAlign=middle;whiteSpace=wrap;rounded=0;" vertex="1" parent="1">
          <mxGeometry x="580" y="190" width="125" height="30" as="geometry" />
        </mxCell>
        <mxCell id="xnKZfCGI2sUpov_k1464-16" value="&lt;font style=&quot;font-size: 20px&quot;&gt;边缘云服务器&lt;/font&gt;" style="text;html=1;strokeColor=none;fillColor=none;align=center;verticalAlign=middle;whiteSpace=wrap;rounded=0;" vertex="1" parent="1">
          <mxGeometry x="580" y="450" width="125" height="30" as="geometry" />
        </mxCell>
      </root>
    </mxGraphModel>
  </diagram>
</mxfile>
